<?xml version="1.0" standalone="no"?>
<!DOCTYPE svg PUBLIC "-//W3C//DTD SVG 20010904//EN"
 "http://www.w3.org/TR/2001/REC-SVG-20010904/DTD/svg10.dtd">
<svg version="1.0" xmlns="http://www.w3.org/2000/svg"
 width="700.000000pt" height="700.000000pt" viewBox="0 0 700.000000 700.000000"
 preserveAspectRatio="xMidYMid meet">
<metadata>
Created by potrace 1.11, written by Peter Selinger 2001-2013
</metadata>
<g transform="translate(0.000000,700.000000) scale(0.100000,-0.100000)"
fill="#000000" stroke="none">
<path d="M1177 5828 c-9 -4 -12 -79 -10 -280 0 -150 2 -279 2 -285 1 -10 474
-13 2331 -13 1282 0 2330 3 2331 8 4 31 3 565 -1 570 -7 9 -4638 9 -4653 0z"/>
<path d="M1166 4952 c-2 -4 -6 -23 -10 -42 -3 -19 -8 -46 -11 -60 -3 -14 -7
-36 -10 -50 -10 -52 -14 -72 -19 -88 -3 -9 -7 -33 -10 -52 -3 -19 -14 -78 -25
-130 -11 -52 -22 -108 -25 -125 -3 -16 -8 -41 -11 -55 -3 -14 -12 -59 -20
-100 -8 -41 -17 -86 -19 -100 -8 -36 -35 -171 -41 -198 -2 -13 -6 -31 -9 -40
-3 -9 -7 -33 -10 -52 -3 -19 -14 -78 -25 -130 -11 -52 -22 -108 -25 -125 -3
-16 -9 -41 -12 -55 -10 -41 -10 -621 0 -627 5 -4 70 -7 145 -7 l136 -1 2 -860
c0 -473 2 -867 2 -875 1 -13 169 -15 1452 -14 797 1 1453 5 1457 8 3 4 6 397
7 874 l0 867 583 1 582 1 0 -874 0 -873 78 0 c361 -3 494 -2 499 4 4 4 7 397
7 874 l1 867 136 1 c74 0 140 3 145 7 6 3 9 125 8 304 -1 234 -5 314 -18 370
-8 40 -18 85 -21 100 -6 34 -12 63 -25 128 -14 66 -19 94 -25 129 -3 16 -24
117 -46 225 -22 108 -42 210 -45 226 -2 17 -7 37 -9 45 -2 8 -7 29 -10 45 -5
34 -10 58 -25 130 -16 78 -20 98 -26 130 -3 17 -13 68 -22 115 l-18 85 -2332
2 c-1282 1 -2333 -2 -2336 -5z m2334 -2619 l0 -583 -875 0 -875 0 0 583 0 584
875 0 875 0 0 -584z"/>
</g>
</svg>
